<?xml version="1.0" encoding="utf-8"?>
<!-- Generator: Adobe Illustrator 22.0.1, SVG Export Plug-In . SVG Version: 6.00 Build 0)  -->
<svg version="1.1" id="Layer_1" xmlns="http://www.w3.org/2000/svg" xmlns:xlink="http://www.w3.org/1999/xlink" x="0px" y="0px"
	 viewBox="0 0 198.1 79.3" style="enable-background:new 0 0 198.1 79.3;" xml:space="preserve">
<style type="text/css">
	.st0{fill:#F2F2F2;}
	.st1{fill:#FFFFFF;}
	.st2{fill:#F65151;}
	.st3{opacity:0.8;}
	.st4{fill:#333333;}
	.st5{fill:none;stroke:#F65151;stroke-miterlimit:10;}
	.st6{clip-path:url(#SVGID_2_);}
	.st7{clip-path:url(#SVGID_4_);}
	.st8{clip-path:url(#SVGID_6_);}
	.st9{clip-path:url(#SVGID_8_);}
	.st10{clip-path:url(#SVGID_10_);}
	.st11{clip-path:url(#SVGID_12_);}
	.st12{clip-path:url(#SVGID_14_);}
	.st13{fill:none;stroke:#333333;stroke-miterlimit:10;}
	.st14{clip-path:url(#SVGID_16_);}
	.st15{clip-path:url(#SVGID_18_);}
	.st16{clip-path:url(#SVGID_20_);}
	.st17{clip-path:url(#SVGID_22_);}
	.st18{clip-path:url(#SVGID_24_);}
	.st19{clip-path:url(#SVGID_26_);}
	.st20{clip-path:url(#SVGID_28_);}
	.st21{clip-path:url(#SVGID_30_);}
	.st22{fill:none;stroke:#CCCCCC;stroke-width:6;stroke-miterlimit:10;}
	.st23{fill:#762123;}
	.st24{clip-path:url(#SVGID_32_);}
	.st25{fill:none;stroke:#FFFFFF;stroke-miterlimit:10;}
	.st26{fill:none;stroke:#808080;stroke-width:0.25;stroke-miterlimit:10;}
	.st27{fill:#767676;}
	.st28{opacity:0.95;fill:#333333;}
	.st29{clip-path:url(#SVGID_34_);}
	.st30{clip-path:url(#SVGID_36_);}
	.st31{clip-path:url(#SVGID_38_);}
	.st32{clip-path:url(#SVGID_40_);}
	.st33{opacity:0.9;fill:#F65151;}
	.st34{clip-path:url(#SVGID_42_);}
	.st35{clip-path:url(#SVGID_44_);}
	.st36{clip-path:url(#SVGID_46_);}
</style>
<g>
	<g>
		<path class="st1" d="M11.9,74.2c0,1.6-0.4,2.9-1.3,3.7c-0.9,0.8-2.1,1.3-3.8,1.3H4.5v-9.7h2.6c1.6,0,2.7,0.4,3.5,1.2
			C11.5,71.4,11.9,72.6,11.9,74.2z M11.1,74.2c0-1.4-0.4-2.4-1.1-3.1C9.4,70.4,8.3,70,6.9,70H5.2v8.5h1.6
			C9.7,78.5,11.1,77.1,11.1,74.2z"/>
		<path class="st1" d="M19.4,79.1h-5.3v-9.7h5.3V70h-4.6v3.7h4.4v0.6h-4.4v4.2h4.6V79.1z"/>
		<path class="st1" d="M27,76.6c0,0.8-0.3,1.5-0.9,1.9c-0.6,0.5-1.4,0.7-2.4,0.7c-1.2,0-2.1-0.1-2.7-0.4v-0.7
			c0.7,0.3,1.6,0.4,2.7,0.4c0.8,0,1.4-0.2,1.9-0.5c0.5-0.4,0.7-0.8,0.7-1.4c0-0.4-0.1-0.7-0.2-0.9c-0.2-0.2-0.4-0.5-0.8-0.7
			s-0.9-0.4-1.5-0.6c-1-0.3-1.7-0.7-2.1-1.1s-0.6-0.9-0.6-1.6c0-0.7,0.3-1.3,0.9-1.8c0.6-0.5,1.3-0.7,2.2-0.7c0.9,0,1.8,0.2,2.6,0.5
			l-0.2,0.6c-0.8-0.3-1.6-0.5-2.3-0.5c-0.7,0-1.3,0.2-1.7,0.5c-0.4,0.3-0.6,0.8-0.6,1.4c0,0.4,0.1,0.7,0.2,0.9
			c0.1,0.2,0.3,0.4,0.6,0.6s0.8,0.4,1.5,0.7c0.8,0.3,1.3,0.5,1.7,0.8c0.4,0.2,0.7,0.5,0.8,0.8C26.9,75.8,27,76.2,27,76.6z"/>
		<path class="st1" d="M34.3,79.1H29v-9.7h5.3V70h-4.6v3.7h4.4v0.6h-4.4v4.2h4.6V79.1z"/>
		<path class="st1" d="M43.6,79.1h-0.7l-5.8-8.6h-0.1c0.1,1,0.1,1.8,0.1,2.3v6.3h-0.7v-9.7h0.7L43,78h0c0-0.8-0.1-1.6-0.1-2.3v-6.3
			h0.7V79.1z"/>
		<path class="st1" d="M52.1,69.4h0.7l-3.6,9.7h-0.6L45,69.4h0.7l2.4,6.6c0.4,1,0.6,1.7,0.8,2.2c0.1-0.3,0.3-0.8,0.5-1.5L52.1,69.4z
			"/>
		<path class="st1" d="M62.4,74.2c0,1.5-0.4,2.8-1.2,3.7s-1.8,1.3-3.2,1.3c-1.4,0-2.4-0.4-3.2-1.3s-1.2-2.1-1.2-3.7
			c0-1.5,0.4-2.8,1.2-3.7c0.8-0.9,1.8-1.3,3.2-1.3c1.4,0,2.4,0.4,3.2,1.3C62,71.5,62.4,72.7,62.4,74.2z M54.4,74.2
			c0,1.4,0.3,2.5,0.9,3.2c0.6,0.8,1.5,1.1,2.7,1.1c1.2,0,2.1-0.4,2.7-1.1c0.6-0.8,0.9-1.8,0.9-3.2c0-1.4-0.3-2.5-0.9-3.2
			s-1.5-1.1-2.7-1.1c-1.2,0-2,0.4-2.7,1.1C54.7,71.8,54.4,72.9,54.4,74.2z"/>
		<path class="st1" d="M64.6,79.1v-9.7h0.7v9.1h4.6v0.6H64.6z"/>
		<path class="st1" d="M77.3,69.4h0.7l-3.6,9.7h-0.6l-3.6-9.7h0.7l2.4,6.6c0.4,1,0.6,1.7,0.8,2.2c0.1-0.3,0.3-0.8,0.5-1.5L77.3,69.4
			z"/>
		<path class="st1" d="M84.8,79.1h-5.3v-9.7h5.3V70h-4.6v3.7h4.4v0.6h-4.4v4.2h4.6V79.1z"/>
		<path class="st1" d="M94.3,74.2c0,1.6-0.4,2.9-1.3,3.7c-0.9,0.8-2.1,1.3-3.8,1.3H87v-9.7h2.6c1.6,0,2.7,0.4,3.5,1.2
			C93.9,71.4,94.3,72.6,94.3,74.2z M93.6,74.2c0-1.4-0.4-2.4-1.1-3.1c-0.7-0.7-1.7-1.1-3.1-1.1h-1.8v8.5h1.6
			C92.2,78.5,93.6,77.1,93.6,74.2z"/>
		<path class="st1" d="M104.7,74.2c0,1.5-0.4,2.8-1.2,3.7s-1.8,1.3-3.2,1.3c-1.4,0-2.4-0.4-3.2-1.3s-1.2-2.1-1.2-3.7
			c0-1.5,0.4-2.8,1.2-3.7c0.8-0.9,1.8-1.3,3.2-1.3c1.4,0,2.4,0.4,3.2,1.3C104.4,71.5,104.7,72.7,104.7,74.2z M96.8,74.2
			c0,1.4,0.3,2.5,0.9,3.2c0.6,0.8,1.5,1.1,2.7,1.1c1.2,0,2.1-0.4,2.7-1.1c0.6-0.8,0.9-1.8,0.9-3.2c0-1.4-0.3-2.5-0.9-3.2
			s-1.5-1.1-2.7-1.1c-1.2,0-2,0.4-2.7,1.1C97.1,71.8,96.8,72.9,96.8,74.2z"/>
		<path class="st1" d="M107.7,74.9v4.2H107v-9.7h2.3c1.2,0,2.1,0.2,2.7,0.7s0.9,1.1,0.9,2c0,0.7-0.2,1.2-0.5,1.6
			c-0.3,0.4-0.9,0.8-1.6,1l2.6,4.4h-0.8l-2.5-4.2H107.7z M107.7,74.3h1.9c0.8,0,1.5-0.2,1.9-0.5c0.5-0.4,0.7-0.9,0.7-1.6
			c0-0.7-0.2-1.3-0.7-1.6c-0.4-0.3-1.2-0.5-2.2-0.5h-1.6V74.3z"/>
		<path class="st1" d="M119.8,75.7h-3.9l-1.4,3.4h-0.8l3.9-9.8h0.4l3.8,9.8h-0.8L119.8,75.7z M116,75.1h3.5l-1.3-3.5
			c-0.1-0.3-0.2-0.7-0.4-1.1c-0.1,0.4-0.3,0.8-0.4,1.2L116,75.1z"/>
		<path class="st1" d="M127.5,79.1h-0.7v-9.7h5.3V70h-4.6v4.1h4.4v0.6h-4.4V79.1z"/>
		<path class="st1" d="M134.3,74.9v4.2h-0.7v-9.7h2.3c1.2,0,2.1,0.2,2.7,0.7s0.9,1.1,0.9,2c0,0.7-0.2,1.2-0.5,1.6
			c-0.3,0.4-0.9,0.8-1.6,1l2.6,4.4h-0.8l-2.5-4.2H134.3z M134.3,74.3h1.9c0.8,0,1.5-0.2,1.9-0.5c0.5-0.4,0.7-0.9,0.7-1.6
			c0-0.7-0.2-1.3-0.7-1.6c-0.4-0.3-1.2-0.5-2.2-0.5h-1.6V74.3z"/>
		<path class="st1" d="M149.9,74.2c0,1.5-0.4,2.8-1.2,3.7s-1.8,1.3-3.2,1.3c-1.4,0-2.4-0.4-3.2-1.3s-1.2-2.1-1.2-3.7
			c0-1.5,0.4-2.8,1.2-3.7c0.8-0.9,1.8-1.3,3.2-1.3c1.4,0,2.4,0.4,3.2,1.3C149.5,71.5,149.9,72.7,149.9,74.2z M141.9,74.2
			c0,1.4,0.3,2.5,0.9,3.2c0.6,0.8,1.5,1.1,2.7,1.1c1.2,0,2.1-0.4,2.7-1.1c0.6-0.8,0.9-1.8,0.9-3.2c0-1.4-0.3-2.5-0.9-3.2
			s-1.5-1.1-2.7-1.1c-1.2,0-2,0.4-2.7,1.1C142.2,71.8,141.9,72.9,141.9,74.2z"/>
		<path class="st1" d="M159.2,79.1h-0.7l-5.8-8.6h-0.1c0.1,1,0.1,1.8,0.1,2.3v6.3h-0.7v-9.7h0.7l5.7,8.6h0c0-0.8-0.1-1.6-0.1-2.3
			v-6.3h0.7V79.1z"/>
		<path class="st1" d="M164.5,79.1h-0.7V70h-3.2v-0.6h7V70h-3.2V79.1z"/>
		<path class="st1" d="M168.3,75.7v-0.5h3.2v0.5H168.3z"/>
		<path class="st1" d="M178.7,79.1h-5.3v-9.7h5.3V70h-4.6v3.7h4.4v0.6h-4.4v4.2h4.6V79.1z"/>
		<path class="st1" d="M188,79.1h-0.7l-5.8-8.6h-0.1c0.1,1,0.1,1.8,0.1,2.3v6.3h-0.7v-9.7h0.7l5.7,8.6h0c0-0.8-0.1-1.6-0.1-2.3v-6.3
			h0.7V79.1z"/>
		<path class="st1" d="M198.1,74.2c0,1.6-0.4,2.9-1.3,3.7c-0.9,0.8-2.1,1.3-3.8,1.3h-2.3v-9.7h2.6c1.6,0,2.7,0.4,3.5,1.2
			C197.7,71.4,198.1,72.6,198.1,74.2z M197.4,74.2c0-1.4-0.4-2.4-1.1-3.1c-0.7-0.7-1.7-1.1-3.1-1.1h-1.8v8.5h1.6
			C196,78.5,197.4,77.1,197.4,74.2z"/>
	</g>
	<g>
		<path class="st1" d="M21.5,8.8c-0.6,1.1-0.9,1.7-1,2c-0.2,0.4-0.7,0.9-1.3,1.6c-0.2,0.3-0.4,0.5-0.6,0.6c-0.4,0.1-0.6,0.1-0.7,0
			c-0.2-0.1-0.4-0.3-0.4-0.7c0-0.5,0.1-1,0.4-1.5c0.5-1.1,1.3-2.6,2.4-4.7c0.2-0.5,0.5-0.8,0.7-1c0.4-0.4,0.7-0.5,1-0.5
			c1.4,0.2,2.3,0.8,2.7,1.8c0.2,0.6,0.4,1.2,0.6,1.8c0.1,1.4,0.3,2.7,0.5,4.1c0.2,1.4,0.4,2.7,0.6,4.1c0.2,1.3,0.3,2.5,0.4,3.4
			c0,1,0,2,0,2.9c0,1,0,1.9,0,2.9c0,1,0,2,0.1,3c0.1,1,0.1,2,0,3c-0.1,2.4-0.2,4.8-0.5,7.3c-0.3,2.4-0.8,4.8-1.6,7.1
			c-0.2,0.5-0.4,1-0.6,1.5c-0.2,0.5-0.4,1-0.6,1.4c-0.4,1.4-1.5,3-3.1,5c-0.3,0.3-0.7,0.6-1.2,0.9c-0.5,0.4-1,0.7-1.5,0.9
			c-0.5,0.2-1,0.5-1.5,0.8c-0.6,0.4-1.4,0.7-2.5,0.8c-1.9,0.2-3.5,0-5-0.7c-1.5-0.7-2.9-1.6-4.3-2.7c-1.6-1.4-2.9-3.3-3.7-5.7
			c-0.2-0.6-0.4-1-0.4-1.4C0.3,46,0.2,45,0.1,43.9c-0.1-1.1-0.1-2.1,0-3.2c0.1-0.6,0.1-1.1,0.1-1.7c0-0.6,0.1-1.2,0.1-1.8
			c0.6-3.2,1.5-6.1,3-8.6c0.7-1.1,1.3-2.2,1.8-3.3c0.7-1.3,1.7-2.4,3.1-3.4c2.5-2,5.2-2.6,7.9-1.6c0.8,0.4,1.4,0.7,1.7,1.1
			c0.2,0.4,0.3,0.8,0.1,1.1c-0.3,0.4-0.7,0.6-1,0.6c-0.5-0.1-0.9-0.3-1.2-0.6c-1.2-0.7-2.5-0.7-3.7,0c-0.7,0.4-1.1,0.7-1.3,0.9
			c-0.7,0.8-1.4,1.6-2.1,2.4c-0.7,0.8-1.3,1.7-1.6,2.8c-0.1,0.2-0.2,0.4-0.4,0.7c-1.4,2.4-2.4,5.5-3,9.4c-0.4,2.1-0.3,4.5,0.1,7.3
			c0.1,0.5,0.2,1,0.3,1.5c0.2,0.5,0.3,1,0.5,1.4c0.2,0.4,0.4,0.9,0.6,1.3c0.2,0.4,0.3,0.9,0.5,1.3c0.8,2.4,2.4,3.7,4.9,3.9
			c1.5,0.1,3-0.4,4.6-1.3c2.5-1.7,4.3-4,5.4-6.9c0.9-2.8,1.5-5.9,2-9.2c0.2-2.2,0.4-4.3,0.3-6.5c0-2.1,0-4.3,0-6.5
			c0-2.7-0.2-5.8-0.7-9.5c-0.1-1-0.2-2-0.3-3.1C21.7,11.3,21.6,10.1,21.5,8.8z"/>
		<path class="st1" d="M28.9,46.6c0.1-0.4,0.1-0.7,0.1-1.1s0.1-0.8,0.2-1.2c0-0.1,0-0.3,0-0.7c0-0.1,0.1-1.3,0.4-3.6
			c1.1-3.3,3.2-4.9,6.1-4.9c0.7,0.1,1.2,0.5,1.5,1.1c0.2,0.9,0.4,1.6,0.4,2c-0.1,1.4-0.4,2.5-0.9,3.3c-0.1,0.2-0.2,0.4-0.3,0.6
			c-0.1,0.2-0.2,0.4-0.3,0.6c-0.4,0.7-0.9,1.3-1.5,1.7c-0.3,0.2-0.8,0.6-1.6,1.1c-0.2,0.1-0.3,0.3-0.4,0.5c-0.2,1.4-0.2,2.5-0.1,3.4
			c0.1,1.4,0.1,2.3,0.2,2.8c0.1,0.5,0.2,1.1,0.2,1.6c0,0.9,0.4,1.7,1.3,2.5c0.7,0.8,1.5,0.9,2.4,0.3c0.5-0.4,1-0.8,1.5-1.2
			c0.8-0.9,1.8-2.2,3.1-4c0.1-0.2,0.2-0.4,0.3-0.6c0.1-0.2,0.2-0.4,0.4-0.7c0.1-0.2,0.1-0.3,0.2-0.5c0.4-0.7,0.8-1.4,1.1-2.2
			c0.3-0.8,0.7-1.6,1-2.4c0.3-0.7,0.6-1.5,0.8-2.3c0.2-0.8,0.4-1.6,0.7-2.4c-0.1-0.2,0.1-0.8,0.5-1.9c0.1-0.4,0.4-0.5,0.9-0.5h0.1
			c0.4,0.1,0.5,0.4,0.5,0.7l-0.4,1.6c-0.4,1.3-0.7,2.6-1.1,3.9c-0.4,1.3-0.8,2.5-1.4,3.7c-0.1,0.2-0.4,0.7-0.9,1.7
			c-0.2,0.6-0.5,1.1-0.8,1.6c-0.2,0.5-0.5,0.9-0.7,1.1c-0.3,0.4-0.7,1-1.1,1.8c-0.6,0.9-1.1,1.5-1.5,2c-0.3,0.3-0.5,0.7-0.6,1
			c-0.4,0.6-0.9,0.9-1.5,1.1c-0.9,0.2-1.5,0.4-1.7,0.5c-0.3,0-0.6,0-0.8-0.1c-0.2-0.1-0.5-0.1-0.8,0c-0.2,0-0.4-0.1-0.7-0.2
			c-0.9-0.5-1.5-0.9-2-1.1c-0.1-0.1-0.2-0.2-0.5-0.6c-0.9-1.1-1.5-2.5-1.8-4.1c-0.1-0.4-0.1-0.7-0.1-1.1c0-0.4-0.1-1.1-0.2-2.3
			C29.1,48.7,29,47.9,28.9,46.6z M35.6,38.5c-0.1,0.2-0.2,0.3-0.4,0.4c-0.1,0.1-0.2,0.2-0.2,0.3c-0.7,1.5-1.3,2.4-1.6,2.7
			c-0.3,0.2-0.4,0.6-0.3,1.3c0,0.1,0,0.2,0,0.3c0.3,0,0.5-0.1,0.5-0.2c0.2-0.3,0.4-0.7,0.6-1c0.2-0.4,0.5-0.8,0.8-1.2
			C35.5,40.4,35.7,39.6,35.6,38.5c0.2-0.2,0.3-0.3,0.3-0.2c0-0.1-0.1-0.2-0.2-0.4h-0.1C35.6,38.1,35.6,38.3,35.6,38.5z"/>
		<path class="st1" d="M51.6,33.5c0.1,0.1,0.2,0.1,0.4,0.1c0.9,0.2,1.2,0.7,0.7,1.5c-0.2,0.7-0.6,1.2-1,1.5c-0.9,0.6-1.7,1.6-2.4,3
			c-0.4,0.8-0.6,1.7-0.5,2.6c0.1,0.4,0.1,0.7,0.2,1.1c0.1,0.3,0.1,0.7,0.2,1.1c0.2,1.1,0.5,1.9,0.7,2.3c0.3,0.9,0.8,2.1,1.5,3.8
			c0.1,0.3,0.2,0.5,0.3,0.7c0.1,0.2,0.2,0.2,0.4,0.2c0.2-0.1,0.5-0.2,0.7-0.4c0.4-0.2,0.7-0.5,1.1-0.8c0.3-0.3,0.7-0.5,1.1-0.7
			c0.1-0.1,0.3-0.2,0.5-0.4c0.7-0.6,1.3-1.1,1.6-1.4c1-0.9,2-2.1,3-3.4l0.4-0.7c0.8-1.1,1.4-2.5,1.9-4.4c0.1-0.4,0.3-0.8,0.7-1
			c0.2-0.2,0.5-0.2,0.8,0c0.4,0.4,0.6,0.7,0.5,1.1c-0.9,2.7-2,4.9-3.3,6.6c-0.4,0.4-0.7,0.8-0.9,1.2c-0.2,0.4-0.6,0.8-0.9,1.1
			c-0.3,0.2-0.7,0.6-1.3,1.1c0,0.1-0.1,0.1-0.2,0.2c-0.6,0.6-1.1,1.1-1.8,1.5c-0.6,0.4-1.2,0.9-1.9,1.3c-0.1,0-0.1,0-0.1,0
			c0,0,0,0.1,0,0.1c-0.2,0.1-0.4,0.2-0.7,0.4c-0.2,0.1-0.4,0.3-0.6,0.6c0.1,0.3,0.2,0.7,0.3,1.3c0.2,0.9,0.2,1.5,0,2
			c-0.1,0.2-0.2,0.6-0.2,0.9c0,0.4-0.2,1.1-0.6,2.1c-0.2,0.6-0.4,1.1-0.6,1.4c-0.3,0.6-0.7,1-1.3,1.2c-0.7,0.3-1.2,0.5-1.6,0.7
			c-1.1,0.3-1.8,0-2.3-1c-0.5-1-0.7-1.9-0.5-2.8c0.4-1.6,1.1-3,2-4.3l1.4-1.2c0.2-0.2,0.3-0.5,0.2-0.8c-0.2-0.8-0.4-1.4-0.6-1.8
			c-0.7-1.9-1.4-3.5-2-4.9c-0.2-0.4-0.4-0.9-0.5-1.4c-0.1-0.5-0.2-1-0.3-1.6c-0.1-0.9-0.2-1.4-0.3-1.6c-0.1-0.2-0.1-0.5-0.1-0.7
			c0.1-1.2,0.2-2.3,0.6-3.3c0.6-1.2,1.2-2.2,1.9-2.8c0.1-0.1,0.3-0.3,0.7-0.6c0.7-0.6,1.6-0.8,2.6-0.7
			C51.2,33.4,51.4,33.4,51.6,33.5z M47.1,59.6c0,0.1,0,0.3-0.1,0.7c-0.1,0.2,0.1,0.5,0.4,0.7c0.2,0.1,0.4,0.1,0.7-0.1
			c0.2-0.2,0.5-0.5,0.8-0.8c0.6-1.1,0.8-2.2,0.8-3.5c0-0.2,0-0.5,0-1c0-0.3-0.1-0.3-0.4-0.1l-0.5,0.5c-0.1,0.2-0.2,0.4-0.4,0.5
			c-0.1,0.2-0.2,0.3-0.4,0.5C47.7,57.5,47.4,58.4,47.1,59.6z"/>
		<path class="st1" d="M67.8,33.5c0.1,0.1,0.2,0.1,0.4,0.1c0.9,0.2,1.2,0.7,0.7,1.5c-0.2,0.7-0.6,1.2-1,1.5c-0.9,0.6-1.7,1.6-2.4,3
			c-0.4,0.8-0.6,1.7-0.5,2.6c0.1,0.4,0.1,0.7,0.2,1.1c0.1,0.3,0.1,0.7,0.2,1.1c0.2,1.1,0.5,1.9,0.7,2.3c0.3,0.9,0.8,2.1,1.5,3.8
			c0.1,0.3,0.2,0.5,0.3,0.7c0.1,0.2,0.2,0.2,0.4,0.2c0.2-0.1,0.5-0.2,0.7-0.4c0.4-0.2,0.7-0.5,1.1-0.8c0.3-0.3,0.7-0.5,1.1-0.7
			c0.1-0.1,0.3-0.2,0.5-0.4c0.7-0.6,1.3-1.1,1.6-1.4c1-0.9,2-2.1,3-3.4l0.4-0.7c0.8-1.1,1.4-2.5,1.9-4.4c0.1-0.4,0.3-0.8,0.7-1
			c0.2-0.2,0.5-0.2,0.8,0c0.4,0.4,0.6,0.7,0.5,1.1c-0.9,2.7-2,4.9-3.3,6.6c-0.4,0.4-0.7,0.8-0.9,1.2c-0.2,0.4-0.6,0.8-0.9,1.1
			c-0.3,0.2-0.7,0.6-1.3,1.1c0,0.1-0.1,0.1-0.2,0.2c-0.6,0.6-1.1,1.1-1.8,1.5c-0.6,0.4-1.2,0.9-1.9,1.3c-0.1,0-0.1,0-0.1,0
			c0,0,0,0.1,0,0.1c-0.2,0.1-0.4,0.2-0.7,0.4c-0.2,0.1-0.4,0.3-0.6,0.6c0.1,0.3,0.2,0.7,0.3,1.3c0.2,0.9,0.2,1.5,0,2
			c-0.1,0.2-0.2,0.6-0.2,0.9c0,0.4-0.2,1.1-0.6,2.1c-0.2,0.6-0.4,1.1-0.6,1.4c-0.3,0.6-0.7,1-1.3,1.2c-0.7,0.3-1.2,0.5-1.6,0.7
			c-1.1,0.3-1.8,0-2.3-1c-0.5-1-0.7-1.9-0.5-2.8c0.4-1.6,1.1-3,2-4.3l1.4-1.2c0.2-0.2,0.3-0.5,0.2-0.8c-0.2-0.8-0.4-1.4-0.6-1.8
			c-0.7-1.9-1.4-3.5-2-4.9c-0.2-0.4-0.4-0.9-0.5-1.4c-0.1-0.5-0.2-1-0.3-1.6c-0.1-0.9-0.2-1.4-0.3-1.6c-0.1-0.2-0.1-0.5-0.1-0.7
			c0.1-1.2,0.2-2.3,0.6-3.3c0.6-1.2,1.2-2.2,1.9-2.8c0.1-0.1,0.3-0.3,0.7-0.6c0.7-0.6,1.6-0.8,2.6-0.7
			C67.4,33.4,67.6,33.4,67.8,33.5z M63.3,59.6c0,0.1,0,0.3-0.1,0.7c-0.1,0.2,0.1,0.5,0.4,0.7c0.2,0.1,0.4,0.1,0.7-0.1
			c0.2-0.2,0.5-0.5,0.8-0.8c0.6-1.1,0.8-2.2,0.8-3.5c0-0.2,0-0.5,0-1c0-0.3-0.1-0.3-0.4-0.1L65,55.9c-0.1,0.2-0.2,0.4-0.4,0.5
			c-0.1,0.2-0.2,0.3-0.4,0.5C63.9,57.5,63.6,58.4,63.3,59.6z"/>
		<path class="st1" d="M100.4,32.2c0.3-2.7,0.7-5.1,1.1-7.4c0.1-0.9,0.3-1.9,0.4-2.8c0.2-0.9,0.4-1.8,0.6-2.7
			c0.6-1.7,1.2-3.4,1.8-5.1c0.7-1.7,1.5-3.3,2.6-4.8c1-1.5,2.1-2.7,3.3-3.5c1.5-1.2,3.1-1.5,4.7-1.1c1,0.2,1.9,0.5,2.6,0.9
			c0.9,0.5,1.5,1.2,1.9,2.2c0.9,2.9,1.2,5.2,1.1,7c-0.1,0.6,0,1,0.1,1.4c0.1,0.7-0.1,1.8-0.6,3.3c-0.2,0.6-0.5,0.9-0.8,1
			c-0.6,0.3-1,0.3-1.4,0.1c-0.4-0.3-0.5-0.7-0.3-1.2c0.3-1,0.4-2,0.4-3c0-1,0-2,0-3c0.1-1.5-0.2-3.3-0.9-5.4c-0.4-0.9-1-1.2-1.9-0.9
			c-2.2,0.6-3.8,1.8-4.6,3.6c-0.6,1.3-1.2,2.6-1.9,3.8c-0.6,1.2-1.1,2.5-1.5,3.9c-0.2,0.6-0.4,1.3-0.7,2c-0.6,1.2-0.9,2.8-1.1,4.7
			c-0.1,1.1-0.3,2.1-0.5,3.3c-0.2,1.1-0.4,2.2-0.6,3.3c-0.2,1.7-0.3,2.9-0.3,3.4c0,1.2,0,2.5,0,3.7c0,1.2,0.1,2.4,0.1,3.6
			c0.2,3.2,1.1,6.2,2.7,8.8c0.2,0.4,0.6,0.9,1.1,1.6c1.1,1.6,2.9,2.5,5.4,2.8c0.6,0.1,1.1,0.1,1.8-0.2c1.2-0.5,2.3-1.1,3.4-1.7
			c1.1-0.6,2.1-1.5,2.9-2.5c1.5-2,2.8-4.1,3.7-6.2c0.4-1.1,0.8-2.1,1.1-3c0.3-0.9,0.6-1.9,1-3.1c0.4-0.8,0.9-1,1.4-0.7
			c0.5,0.3,0.7,0.8,0.6,1.3c-0.5,1.8-1,3.6-1.6,5.5c-0.6,2.2-2,4.6-4,7.3c-1.6,2-3.8,3.7-6.9,5c-0.7,0.2-1.5,0.4-2.5,0.4
			c-1.8-0.1-3.7-0.4-5.6-1c-1.2-0.3-2.4-1.1-3.5-2.5c-1.6-1.7-2.8-3.8-3.6-6.5c-0.8-2.4-1.2-5.1-1.2-7.9c0-1.2,0-2.5,0-3.7
			C100.4,34.7,100.4,33.4,100.4,32.2z"/>
		<path class="st1" d="M137.7,39.3c0,1,0,1.7,0.1,2.2c0,0.3,0.1,0.5,0.4,0.7c0.4,0.1,1,0.3,1.8,0.5c0.2,0,0.5-0.1,0.8-0.3
			c1.1-0.7,1.9-1.4,2.3-2.2c0.2-0.5,0.5-1,0.8-1.6c0.1-0.4,0.3-0.7,0.7-1c0.2-0.1,0.5-0.1,0.7,0c0.1,0.1,0.1,0.2,0.2,0.2
			c0.1,0,0.2,0.1,0.3,0.1c0.4,0.4,0.5,0.7,0.3,1.1c-0.6,1.4-1.2,2.3-1.7,2.9c-0.2,0.2-0.4,0.4-0.6,0.6c-0.2,0.2-0.4,0.4-0.6,0.6
			c-0.3,0.4-0.7,0.6-1.1,0.8c-0.4,0.2-0.9,0.3-1.3,0.5c-0.1,0.1-0.3,0.1-0.7,0c-0.2,0-0.5,0-0.7-0.1c-0.2-0.1-0.5-0.2-0.7-0.2
			c-0.1,0-0.3,0-0.5,0s-0.4,0-0.6-0.1c-0.2,0-0.3,0.1-0.5,0.4c0,0.1,0,0.3-0.1,0.5c-0.4,1.9-0.9,3.3-1.3,4.2
			c-0.1,0.3-0.3,0.7-0.5,1.2c-0.1,0.2-0.2,0.5-0.3,0.7c-0.1,0.2-0.2,0.5-0.3,0.7c-0.2,0.7-0.3,1-0.3,0.8c-0.1,0.7-0.5,1.2-1.2,1.6
			c-1.2,0.7-2.5,0.8-3.6,0.3c-0.3-0.1-0.5-0.2-0.6-0.3c-1.4-1.2-2.2-2.3-2.4-3.1c0-0.1,0-0.2-0.1-0.4c-0.1-0.1-0.1-0.2-0.2-0.4
			c-0.1-0.4-0.2-0.8-0.3-1.2c-0.1-0.4-0.2-0.8-0.3-1.2c-0.2-0.7-0.3-1.8-0.3-3.3c0.1-0.8,0.2-1.7,0.5-2.7c0.2-0.5,0.4-1,0.5-1.4
			c0.2-0.4,0.2-0.9,0.2-1.5c0-0.1,0.1-0.2,0.3-0.5c0,0.1,0.1-0.1,0.3-0.5c0.3-0.5,0.8-0.7,1.5-0.7h0.4c0.1,0,0.2-0.1,0.2-0.3
			c0-0.1-0.1-0.3-0.2-0.6c-0.2-0.6-0.4-1.2-0.6-1.9c-0.2-0.6-0.4-1.2-0.6-1.9c-0.2-0.4-0.2-0.8-0.1-1.2l0.3-1.5
			c0-0.5,0.2-1.2,0.7-2.1c0.1-0.2,0.2-0.4,0.5-0.6c1.2-1,2.6-1.2,4-0.7c0.5,0.2,1.1,0.8,1.7,1.6c0.6,0.9,1,1.8,1.2,2.8
			c0.2,0.5,0.4,1,0.5,1.6c0.2,0.6,0.3,1.1,0.3,1.8c0,0.2,0.1,0.5,0.2,0.8C137.6,36.4,137.7,37.7,137.7,39.3z M129.6,47.3l0.1,0.9
			c0.2,1.8,0.7,3.3,1.4,4.5c0.1,0.3,0.3,0.4,0.7,0.2c0.7-0.4,1.2-1,1.6-1.9c0.9-1.7,1.7-4.1,2.5-7.2c0.1-0.1,0.1-0.2,0.1-0.3
			c0-0.3-0.1-0.5-0.4-0.7c0.1,0.1-0.1-0.1-0.7-0.5c-1.4-0.9-2.5-1.7-3.1-2.2c-0.3-0.2-0.5-0.2-0.7,0.2c-0.1,0.6-0.3,1.1-0.5,1.7
			c-0.2,0.6-0.4,1.2-0.5,1.7c-0.2,0.6-0.3,1.2-0.3,1.9C129.7,46.4,129.6,46.9,129.6,47.3z M136.1,39.2c0-1-0.1-1.9-0.3-2.7
			c-0.1-0.4-0.2-0.9-0.3-1.3s-0.2-0.9-0.2-1.4c-0.2-0.7-0.6-1.7-1-3.2c-0.2-0.6-0.5-1-0.7-1.2c-0.2-0.2-0.5-0.6-0.8-1
			c-0.3-0.3-0.6-0.3-0.8,0.1c-0.6,0.7-0.9,1.4-0.8,1.9c0,0.2,0,0.5,0,0.7c-0.1,0.7,0.1,1.9,0.6,3.3c0.6,1.7,1.1,2.8,1.6,3.3l0.3,0.6
			c0.4,0.9,1.1,1.7,2,2.4l0.3,0.1c0.2,0,0.3,0,0.3-0.1C136.1,40.3,136.1,39.9,136.1,39.2z"/>
		<path class="st1" d="M150.2,33.5c0.1,0.1,0.2,0.1,0.4,0.1c0.9,0.2,1.2,0.7,0.7,1.5c-0.2,0.7-0.6,1.2-1,1.5c-0.9,0.6-1.7,1.6-2.4,3
			c-0.4,0.8-0.6,1.7-0.5,2.6c0.1,0.4,0.1,0.7,0.2,1.1c0.1,0.3,0.1,0.7,0.2,1.1c0.2,1.1,0.5,1.9,0.7,2.3c0.3,0.9,0.8,2.1,1.5,3.8
			c0.1,0.3,0.2,0.5,0.3,0.7c0.1,0.2,0.2,0.2,0.4,0.2c0.2-0.1,0.5-0.2,0.7-0.4c0.4-0.2,0.7-0.5,1.1-0.8c0.3-0.3,0.7-0.5,1.1-0.7
			c0.1-0.1,0.3-0.2,0.5-0.4c0.7-0.6,1.3-1.1,1.6-1.4c1-0.9,2-2.1,3-3.4l0.4-0.7c0.8-1.1,1.4-2.5,1.9-4.4c0.1-0.4,0.3-0.8,0.7-1
			c0.2-0.2,0.5-0.2,0.8,0c0.4,0.4,0.6,0.7,0.5,1.1c-0.9,2.7-2,4.9-3.3,6.6c-0.4,0.4-0.7,0.8-0.9,1.2c-0.2,0.4-0.6,0.8-0.9,1.1
			c-0.3,0.2-0.7,0.6-1.3,1.1c0,0.1-0.1,0.1-0.2,0.2c-0.6,0.6-1.1,1.1-1.8,1.5c-0.6,0.4-1.2,0.9-1.9,1.3c-0.1,0-0.1,0-0.1,0
			c0,0,0,0.1,0,0.1c-0.2,0.1-0.4,0.2-0.7,0.4c-0.2,0.1-0.4,0.3-0.6,0.6c0.1,0.3,0.2,0.7,0.3,1.3c0.2,0.9,0.2,1.5,0,2
			c-0.1,0.2-0.2,0.6-0.2,0.9c0,0.4-0.2,1.1-0.6,2.1c-0.2,0.6-0.4,1.1-0.6,1.4c-0.3,0.6-0.7,1-1.3,1.2c-0.7,0.3-1.2,0.5-1.6,0.7
			c-1.1,0.3-1.8,0-2.3-1c-0.5-1-0.7-1.9-0.5-2.8c0.4-1.6,1.1-3,2-4.3l1.4-1.2c0.2-0.2,0.3-0.5,0.2-0.8c-0.2-0.8-0.4-1.4-0.6-1.8
			c-0.7-1.9-1.4-3.5-2-4.9c-0.2-0.4-0.4-0.9-0.5-1.4c-0.1-0.5-0.2-1-0.3-1.6c-0.1-0.9-0.2-1.4-0.3-1.6c-0.1-0.2-0.1-0.5-0.1-0.7
			c0.1-1.2,0.2-2.3,0.6-3.3c0.6-1.2,1.2-2.2,1.9-2.8c0.1-0.1,0.3-0.3,0.7-0.6c0.7-0.6,1.6-0.8,2.6-0.7
			C149.8,33.4,150,33.4,150.2,33.5z M145.6,59.6c0,0.1,0,0.3-0.1,0.7c-0.1,0.2,0.1,0.5,0.4,0.7c0.2,0.1,0.4,0.1,0.7-0.1
			c0.2-0.2,0.5-0.5,0.8-0.8c0.6-1.1,0.8-2.2,0.8-3.5c0-0.2,0-0.5,0-1c0-0.3-0.1-0.3-0.4-0.1l-0.5,0.5c-0.1,0.2-0.2,0.4-0.4,0.5
			c-0.1,0.2-0.2,0.3-0.4,0.5C146.3,57.5,146,58.4,145.6,59.6z"/>
		<path class="st1" d="M160.6,43.3c0.1-0.6,0.1-1.3,0-2c-0.1-0.7-0.1-1.4,0-2.2c-0.1-0.9-0.2-1.9-0.1-3c-0.1-0.4-0.1-1.1-0.1-2
			c0-1.9,0-3.3,0.1-4.3c0-0.5,0-1,0.1-1.5c0.1-0.5,0.1-1,0.1-1.5c-0.1-0.5-0.1-1,0-1.5c0-0.5,0-1,0-1.5c0-0.2,0-0.5,0-0.8
			c0-0.3,0.1-0.6,0.1-0.9c0.2-1.2,0.2-2.7,0.1-4.5c0-0.4-0.2-0.7-0.7-0.7c-0.7-0.1-1.7-0.4-3-0.8c-1-0.3-1.9-0.5-2.8-0.6
			c-0.4,0-0.7,0-0.9-0.1c-1.5-0.2-3.3,0-5.4,0.5c-0.7,0.2-1.2,0.7-1.5,1.2c-0.1,0.2-0.3,0.7-0.5,1.3c0,0.2,0,0.4,0,0.7
			c-0.1,0.4-0.3,0.8-0.8,1c-0.4,0.2-0.6,0.1-0.7-0.4c-0.1-0.5-0.1-0.8-0.1-1c-0.1-1.5,0.5-2.7,1.8-3.5c0.3-0.2,0.8-0.6,1.6-0.9
			c0.4-0.2,0.7-0.3,0.8-0.3c0.7-0.1,1.5-0.2,2.3-0.3c0.8-0.1,1.5-0.1,2.3,0c0.7,0.2,1.4,0.3,2,0.4c0.7,0.1,1.3,0.2,2,0.3
			c0.2,0.1,0.5,0.1,0.7,0.2c0.2,0.1,0.4,0.1,0.6,0.1c0.9,0.2,1.5,0.4,2,0.5c0.5,0.1,0.7-0.1,0.7-0.7c0-0.4,0-0.9,0.1-1.3
			c0.1-0.4,0.1-0.9,0.1-1.4c0-0.2,0.2-0.4,0.5-0.6c0.4-0.2,0.8-0.3,1.1-0.1c0.9,0.4,1.6,0.7,2,1.1s0.6,0.8,0.6,1.2
			c0,1.1,0,1.8,0.1,2.3c0,0.4,0.2,0.7,0.6,0.7c1.5,0.4,3.1,0.7,4.6,0.9c1.5,0.2,3.1,0.3,4.7,0.2c0.6,0,1.3,0,1.9,0
			c0.7,0,1.3,0,2-0.1c0.1,0,0.2,0,0.2,0c0,0,0.1,0,0.2,0c1.2,0.2,3,0.1,5.2-0.4c2.4-0.5,4.4-1.7,6.1-3.7c1.2-1.3,1.9-2.6,2.2-4
			c0.1-0.5,0.2-0.9,0.3-1.2c0-0.4,0-0.7,0-1.1c0-0.3,0-0.7,0-1.1c0-0.5-0.1-1.2-0.4-2.1c-0.2-1-0.8-1.7-1.7-2.1
			c-0.2-0.1-0.4-0.3-0.6-0.4c-0.2-0.2-0.4-0.3-0.6-0.4c-0.2-0.1-0.2-0.3-0.2-0.6c0.1-0.4,0.3-0.5,0.7-0.4c0.1,0.1,0.2,0.1,0.3,0.2
			c0.1,0.1,0.1,0.1,0.2,0.1c0.1,0,0.2,0.1,0.2,0.1c1.1,0.5,1.7,0.9,2,1.2c0.2,0.3,0.6,1,1,2.2c0.8,2.5,0.7,5-0.3,7.5
			c-0.7,1.7-1.4,2.9-2,3.7c-0.9,1.1-1.8,1.9-2.7,2.3c-0.3,0.1-0.6,0.3-0.9,0.5c-0.3,0.2-0.6,0.3-0.9,0.5c-0.9,0.5-2.1,0.8-3.8,0.9
			c-0.4,0-0.7,0-1,0c-0.3,0-0.6,0-0.9,0c-0.7,0-1.3,0-2,0c-0.7,0-1.3,0-2,0.1c-0.4,0.1-0.8,0.1-1.2,0.1c-0.4,0-0.8,0-1.3,0
			c-0.1,0-0.1,0-0.2,0c-0.1,0-0.1,0-0.2,0c-0.7-0.1-1.5-0.2-2.1-0.2c-0.7,0-1.4,0-2-0.1c-0.4,0-0.9-0.1-1.3-0.2
			c-0.4-0.1-0.9-0.2-1.4-0.3c-0.5-0.1-1.3-0.3-2.5-0.5c-0.4-0.1-0.6,0.1-0.7,0.5c-0.2,1.1-0.3,1.8-0.3,2.1c0,0.6,0,1-0.1,1.2
			c-0.2,0.6-0.3,1.6-0.3,3c0,0.1,0,0.2,0,0.3c-0.2,0.7-0.3,1.3-0.3,2c0,0.6,0,1.2,0,1.9c0,1.2-0.1,2.2-0.2,3.1
			c-0.1,0.4-0.1,0.8-0.1,1.2c0,0.4,0,0.8,0,1.2c0,0.6,0,1,0.1,1.2c0.1,0.6,0.1,1.2,0,1.9c0,0.6,0,1.3,0,2c-0.1,1.4-0.1,2.7,0,3.9
			c0,0.2,0,0.6,0,1c-0.1,0.8-0.1,2-0.1,3.4c0,0.6,0.1,1.1,0.2,1.6c0.2,1.5,0.4,3.4,0.4,5.5c0,0.7,0.1,1.4,0.2,2.2
			c0.1,1.1,0.2,2,0.2,2.5c0,0.6,0.1,1.2,0.3,1.7c0.2,0.6,0.3,1,0.4,1.2c0,0.2,0,0.5,0.1,0.8c0.1,0.3,0.2,0.5,0.2,0.8
			c0.1,0.2,0.3,0.5,0.7,0.8c0.2,0.1,0.5,0.2,0.7,0.1c0.1-0.1,0.2-0.2,0.3-0.3c0.1-0.1,0.2-0.2,0.3-0.3c0.9-1.1,1.6-2.3,2-3.5
			c0.3-1.4,0.7-2.5,1.1-3.4c0.2-0.3,0.3-0.8,0.5-1.5c0.2-1.3,0.4-2.4,0.7-3.3c0.2-0.6,0.4-1.5,0.6-2.7c0.2-1.4,0.3-2.3,0.5-2.8
			c0.1-0.7,0.2-1.5,0.3-2.3c0-0.2,0.1-1,0.3-2.2c0.1-0.5,0.2-0.9,0.3-1.2c0.1-1.5,0.2-3,0.6-4.5c0-0.3,0-0.6,0-1
			c0-0.3,0-0.7,0.1-1.1c0-0.2,0-0.5,0-0.8c0-0.3,0-0.6,0.1-0.9c0-0.3,0.1-0.7,0.4-1.1c0.2-0.2,0.4-0.3,0.6-0.3
			c0.2,0,0.4,0.2,0.6,0.5c0.1,0.1,0.1,0.2,0.1,0.3c0,1.7,0,3-0.1,3.9c-0.1,0.2-0.2,0.9-0.4,2.2c-0.1,0.7-0.2,1-0.2,0.9
			c0,0.5-0.1,1.6-0.4,3.2c-0.1,0.6-0.1,1.1-0.2,1.6c-0.1,0.5-0.2,1-0.2,1.5c-0.1,0.4-0.2,0.9-0.3,1.3c-0.1,0.5-0.2,0.9-0.3,1.3
			c0,0.1,0,0.2-0.1,0.3c0,0.6-0.1,1.2-0.3,1.7c-0.2,0.5-0.3,1.1-0.5,1.6c-0.3,1.1-0.5,1.9-0.5,2.2c-0.1,0.6-0.2,1.3-0.6,2.2
			c-0.4,1.1-0.6,2.1-0.7,3.1c-0.1,0.7-0.4,1.5-0.7,2.1c-0.2,0.4-0.4,0.9-0.6,1.3c-0.2,0.4-0.4,0.9-0.6,1.4c-0.3,0.5-0.7,1-1.2,1.4
			c-0.2,0.1-0.4,0.2-0.7,0.3c-1.4,0.2-2.5,0-3.5-0.7c-0.7-0.5-1.2-1.1-1.5-1.8c-0.1-0.1-0.1-0.2-0.2-0.4c-0.8-2.1-1.3-4-1.4-5.6
			c-0.1-0.6-0.1-1.2-0.2-1.8c-0.1-0.6-0.2-1.2-0.2-1.8c0-0.2,0-0.5,0-0.7c0-0.2,0-0.5,0-0.7c-0.1-0.6-0.1-1.1-0.1-1.6
			c0-0.5,0-1,0-1.4c0-0.1,0-0.2,0-0.3s0-0.2,0-0.3c-0.2-1-0.4-2-0.3-3C160.7,45.4,160.7,44.3,160.6,43.3z"/>
		<path class="st1" d="M183.7,47c0-0.7,0-1.5,0-2.1c0-0.7,0-1.4,0-2.1l0.1-1.4c0-0.8,0-1.4,0.1-1.8c0-0.1,0-0.2-0.1-0.2
			c-0.2,0-0.3,0-0.3,0.1c-0.2,0.4-0.5,0.7-0.7,1.1s-0.4,0.7-0.6,1.1c-0.3,0.6-0.6,1.1-0.8,1.7c-0.2,0.6-0.5,1.1-0.7,1.6
			c-0.2,0.6-0.8,1.5-1.6,2.8c-0.2,0.2-0.4,0.6-0.7,1c-0.4,0.6-0.9,1.1-1.5,1.6c-0.2,0.2-0.6,0.3-1.1,0.4c-0.7,0.1-1.4-0.2-2-0.9
			c-0.7-0.9-1.1-1.9-1.2-3.1c-0.1-2.2-0.1-4.1,0-5.7c0.1-1.1,0.4-2.2,0.7-3.3c0.7-1.7,1.6-3.3,2.6-4.8c0.9-1.4,2.1-2.4,3.6-3.1
			c0.4-0.2,1-0.3,1.8-0.4c1.3,0,2.4,0.1,3.3,0.4c0.1,0.1,0.1,0.1,0.2,0.2c0.1,0.1,0.2,0.1,0.3,0.1c0.4,0.4,0.4,0.7,0,1.1
			c-0.4,0.4-0.9,0.7-1.4,0.8c-0.9,0.2-1.4,0.4-1.5,0.4c-1.2,0.4-2,1.1-2.5,2c-0.2,0.2-0.4,0.5-0.6,0.7c-0.2,0.2-0.4,0.5-0.5,0.8
			c-0.6,0.6-1.1,1.6-1.6,2.8c-0.7,1.7-1.1,3.3-1.2,4.9c-0.2,0.9-0.3,1.6-0.3,2c-0.1,0.5,0,1.1,0.1,2c0,0.1,0.1,0.2,0.2,0.3
			c0.1,0.1,0.2,0.1,0.4-0.1c0.9-1.1,1.4-1.8,1.5-2c1.1-1.6,1.9-3.3,2.6-5c0.1-0.2,0.4-1,1.1-2.2c0.4-0.6,0.7-1.1,0.8-1.6
			c0.1-0.2,0.4-0.8,0.9-1.8c0.3-0.4,0.7-0.7,1.2-0.7c1.2-0.1,2.1,0.2,2.9,0.8c0.2,0.2,0.4,0.5,0.4,0.8c0.1,1.6,0.2,2.7,0.1,3.2
			c-0.1,0.9-0.1,1.7-0.1,2.6c0,0.8-0.1,1.7-0.1,2.5c0,0.6,0,1.6,0,2.8c-0.1,0.1-0.1,0.3-0.1,0.4c0,0.2,0,0.3,0,0.5
			c-0.1,0.4-0.2,1.1-0.2,2.1c0.1,1.1,0.1,2.3,0,3.4c0,0.5,0.2,1.3,0.6,2.5c0,0.1,0.1,0.1,0.2,0.1c0.1,0,0.2,0,0.3,0
			c0.1-0.2,0.2-0.5,0.4-0.7c0.5-1.2,0.8-1.9,0.9-2.2c0.5-1.6,1-3.5,1.6-5.8c0.1-0.6,0.3-1.1,0.4-1.7c0.2-0.6,0.3-1.1,0.5-1.7
			c0-0.1,0.1-0.5,0.2-1.2c0.3-1.8,0.6-3.1,0.7-4c0-0.2,0.1-0.5,0.4-1c0.1-0.3,0.3-0.5,0.8-0.5c0.5,0,0.8,0.1,0.8,0.3
			c0,0.2-0.2,0.8-0.5,1.8c-0.3,1-0.5,1.7-0.5,2.1c-0.1,0.6-0.2,1.2-0.4,1.8c-0.1,0.6-0.2,1.1-0.4,1.7c-0.1,0.6-0.3,1.1-0.4,1.7
			c-0.2,0.6-0.3,1.1-0.4,1.6c-0.2,0.9-0.2,1.2-0.2,0.9c-0.4,0.9-0.7,1.9-0.9,2.8c-0.2,1-0.5,1.9-0.7,2.8c-0.1,0.2-0.1,0.3-0.1,0.4
			c0.1,0.5-0.2,1.4-0.9,2.7c-0.3,0.6-0.8,0.9-1.5,0.9c-0.3,0-0.6,0-0.9,0c-0.6-0.1-1.1-0.4-1.6-0.9l-0.9-1.3c-0.5-0.9-0.7-1.5-0.7-2
			c-0.2-1.1-0.4-2.2-0.5-3.3c-0.1-1.1-0.1-2.3-0.1-3.4c0-0.2,0-0.4,0-0.6C183.6,47.4,183.6,47.2,183.7,47L183.7,47z"/>
	</g>
</g>
</svg>
